<?xml version="1.0"?><svg xmlns="http://www.w3.org/2000/svg" viewBox="448 703 1112 594"><g id="Livello_1"><path d="M1310.82,747.81c28.57-.3,54.74,3.57,78.24,11.92,23.8,8.64,45.22,22.06,63.37,40.24,18.74,18.48,32.43,39.06,41.65,62.01,9.22,22.95,13.69,48.3,13.69,76.02,0,23.55-3.28,45.32-10.42,66.18-6.84,20.58-17.26,39.95-30.94,57.84-18.15,23.55-40.16,41.14-66.04,52.77-25.59,11.62-55.04,17.29-88.37,17.29h-1.19v-19.38h.59c9.22,0,17.86-1.2,25.89-3.58,7.73-2.09,14.88-5.36,21.12-10.14,7.74-5.97,14.88-13.42,21.42-22.96,6.24-9.23,11.3-20.27,15.47-33.09,4.46-12.82,8.04-27.72,10.11-44.41,2.38-16.7,3.27-34.88,3.27-55.46,0-24.74-.88-46.21-3.27-64.39-2.39-18.48-5.65-33.69-10.11-46.21-4.47-11.93-9.52-22.36-15.18-31-5.94-8.64-12.49-15.5-19.34-20.57-7.14-5.07-14.88-8.95-23.2-11.33-8.04-2.38-16.67-3.58-25.59-3.58v-.6h-1.19v-17.58ZM1308.74,747.81h2.08v17.58c-16.66.6-31.23,5.07-43.73,13.42-13.09,8.65-23.8,21.77-32.72,39.06-7.14,14.31-12.49,31.6-16.07,52.17-3.57,20.57-5.35,44.12-5.35,70.65,0,31.61,2.67,59.03,8.03,82.29,5.65,23.25,13.69,42.33,25,57.53,7.73,10.74,17.25,18.49,28.26,23.85,11.01,5.37,23.21,8.05,36.59,8.35v19.38c-33.02,0-62.48-5.37-87.76-16.4-25.88-11.03-47.6-27.72-65.45-50.09-14.57-18.18-25.29-37.57-32.42-59.03-7.14-21.16-10.71-43.82-10.71-68.56,0-27.72,4.75-53.07,13.98-75.73,9.52-22.66,23.21-43.23,41.95-61.71,18.73-18.48,39.57-32.2,62.77-40.84,23.21-8.65,48.2-12.23,75.57-11.33v-.59Z" style="fill:#ffffff;"></path><path d="M492.68,752.87h191.3v10.13h-9.52c-7.14.3-13.09.9-18.15,1.79-5.06.59-8.93,2.09-11.6,3.87-2.38,1.49-4.76,3.28-6.84,5.07-2.08,1.79-3.58,4.17-4.76,7.15-1.19,2.69-2.09,7.15-2.68,13.72-.3,6.56-.61,15.2-.61,26.23v180.66c0,16.99.61,30.71,1.79,41.74,1.49,11.03,3.27,19.38,5.35,24.44,2.69,5.67,5.95,10.73,10.12,15.2,4.17,4.48,9.22,8.35,15.17,11.63,5.65,3.87,11.9,6.56,19.34,8.35,7.14,1.49,15.17,2.39,23.8,2.39,9.81,0,19.34-1.19,27.96-3.28,8.33-2.39,16.37-5.67,23.5-10.14,6.84-4.47,13.09-9.83,18.45-15.8,5.06-6.26,9.52-13.41,13.39-21.76,3.27-7.75,5.65-18.78,7.43-32.49,1.19-10.13,2.09-21.76,2.38-34.88l21.43,25.03c0,1.79,0,3.58-.3,5.37-1.19,15.8-3.57,28.32-6.25,38.17-2.68,9.53-7.73,19.07-14.57,28.02-7.14,8.95-16.37,17.59-27.67,25.64-11.01,8.04-24.1,13.71-39.27,17.59-15.18,3.57-32.44,5.37-51.77,5.37-16.06,0-30.35-.89-42.54-2.98-12.21-2.09-22.62-4.77-31.24-8.65-11.91-5.96-22.32-12.52-30.64-19.98-8.33-7.15-15.17-15.5-20.53-25.04-4.76-8.95-8.33-19.38-10.71-31.91-2.37-12.22-3.57-25.93-3.57-41.44v-181.85c0-10.43-.29-19.08-.89-25.94-.59-6.56-1.49-11.33-2.68-14.01-1.49-2.39-2.98-4.77-5.06-6.86-1.78-2.09-4.17-3.88-7.14-5.37-2.97-1.49-7.14-2.69-12.49-3.28-5.65-.89-12.19-1.19-19.93-1.19v-10.73Z" style="fill:#ffffff; fill-rule:evenodd;"></path><path d="M880.33,752.87l192.49,230.16v-159.5c0-10.44-.9-19.38-2.68-27.13-1.8-7.75-4.17-13.42-7.45-16.99-4.76-5.37-11.01-9.25-18.74-11.93-7.45-2.68-16.95-3.87-27.97-3.87v-10.73h129.41v10.13c-8.03,1.5-15.17,2.98-20.52,4.18-5.65,1.49-9.82,2.68-12.5,4.17-2.68,1.49-5.06,3.58-7.44,6.26-2.08,2.68-4.17,5.96-6.24,9.54-1.49,3.87-2.68,8.64-3.58,14.9-.59,6.26-1.19,13.42-1.19,22.06v307.96h-9.21l-263.3-308.56v164.56l-22.91-26.53v-163.68l-8.03-10.14c-4.17-4.47-8.04-8.34-11.6-11.62-3.87-2.98-7.14-5.37-10.42-6.86-3.27-1.79-6.84-3.28-11.6-3.88-4.47-.89-9.81-1.48-15.47-1.78v-10.73h138.94Z" style="fill:#ffffff; fill-rule:evenodd;"></path><path d="M541.86,1250.67v-61.77h12.98v50.89h18.84v10.88h-31.82Z" style="fill:#ffffff;"></path><path d="M577.44,1205.47l3.01-16.57h10.69l-5.73,16.57h-7.98Z" style="fill:#ffffff;"></path><path d="M641.05,1188.89v38.67c0,8.6-1.63,14.76-4.91,18.5-3.27,3.74-8.63,5.61-16.06,5.61s-12.44-1.82-15.85-5.44c-3.41-3.63-5.11-9.25-5.11-16.86v-40.47h12.82v37.12c0,7.06.59,11.53,1.77,13.43,1.19,1.9,3.37,2.84,6.54,2.84,3.01,0,5.11-1.06,6.31-3.18.59-1.06,1.03-2.67,1.34-4.84.3-2.16.46-4.91.46-8.26v-37.12h12.69Z" style="fill:#ffffff;"></path><path d="M651.99,1250.67v-61.77h17.29l11.77,32.08c1.34,3.58,2.55,7.19,3.66,10.83,1.1,3.64,2.02,7.18,2.77,10.61-.16-1.34-.33-2.75-.48-4.23-.15-1.48-.23-2.86-.23-4.14,0-.92-.04-2.45-.13-4.57-.09-2.13-.13-3.78-.13-4.99l-.75-35.6h11.9v61.77h-16.87l-12.49-33.8c-.47-1.31-.94-2.69-1.4-4.13-.46-1.44-.96-3.05-1.5-4.86-.54-1.8-1.08-3.68-1.63-5.63-.54-1.95-1.11-4.04-1.7-6.24l.71,10.3c0,1,.05,2.43.15,4.27.1,1.85.15,2.93.15,3.27l.71,36.82h-11.82Z" style="fill:#ffffff;"></path><path d="M708.71,1250.67v-61.77h12.57v61.77h-12.57Z" style="fill:#ffffff;"></path><path d="M742.41,1250.67l-15.49-61.77h13.45l6.31,32.2,2.34,12.3c.44,2.53.81,5.18,1.08,7.95.44-4.07.94-7.81,1.48-11.21.54-3.4,1.14-6.41,1.77-9.03l7.35-32.2h12.99l-16.08,61.77h-15.2Z" style="fill:#ffffff;"></path><path d="M779.5,1250.67v-61.77h33.28v9.54h-20.3v14.73h18.67v9.5h-18.67v18.04h21.05v9.96h-34.03Z" style="fill:#ffffff;"></path><path d="M840.47,1188.89c7.52,0,12.64,1.14,15.35,3.43,2.72,2.29,4.07,6.43,4.07,12.43,0,4.74-.67,8.28-2.02,10.61-1.35,2.33-3.67,3.92-6.96,4.75,3.68.75,6.17,2.06,7.48,3.92,1.31,1.86,1.96,5.44,1.96,10.75v3.1c0,2.79.12,5.2.37,7.21.25,2.01.65,3.87,1.22,5.57h-13.49c-.31-1.09-.54-2.63-.71-4.62-.17-1.98-.25-4.53-.25-7.63v-4.86c0-1.56-.14-2.86-.42-3.9-.28-1.03-.71-1.9-1.29-2.6-1.06-1.25-2.83-1.89-5.31-1.89h-5.39v25.49h-12.9v-61.77h18.29ZM835.09,1215.55h3.17c3.46,0,5.86-.66,7.21-1.97,1.35-1.31,2.02-3.59,2.02-6.86s-.61-5.31-1.84-6.46c-1.23-1.16-3.61-1.74-7.14-1.74h-3.42v17.03Z" style="fill:#ffffff;"></path><path d="M868.54,1231.58h13.12v1.63c0,3.21.54,5.49,1.61,6.82s2.86,2.01,5.37,2.01c1.95,0,3.51-.61,4.68-1.82,1.17-1.22,1.75-2.87,1.75-4.96,0-2.9-2.73-6.15-8.19-9.75l-.79-.5c-1.81-1.17-2.8-1.81-2.97-1.92-1.53-1-2.84-1.9-3.92-2.68-.89-.61-1.61-1.14-2.17-1.59-.67-.53-1.22-.99-1.63-1.38-2.25-2.06-3.8-4.01-4.63-5.84-.83-1.83-1.25-4.08-1.25-6.76,0-5.13,1.77-9.24,5.28-12.32,3.53-3.08,8.26-4.63,14.22-4.63s10.71,1.43,13.85,4.29c3.13,2.86,4.7,7.08,4.7,12.66v1.63h-12.74v-.33c0-2.93-.53-5.11-1.59-6.53-1-1.48-2.56-2.22-4.68-2.22-1.89,0-3.4.58-4.53,1.73-1.13,1.16-1.69,2.7-1.69,4.63,0,3.29,3.56,7.07,10.69,11.34l4.26,2.64c4,2.54,6.8,5,8.39,7.37,1.59,2.37,2.38,5.19,2.38,8.45,0,5.97-1.75,10.49-5.27,13.54-3.51,3.06-8.69,4.58-15.53,4.58-6.41,0-11.14-1.44-14.17-4.33-3.03-2.89-4.54-7.42-4.54-13.58v-2.18Z" style="fill:#ffffff;"></path><path d="M917.45,1250.67v-61.77h12.57v61.77h-12.57Z" style="fill:#ffffff;"></path><path d="M950.89,1250.67v-51.65h-14.03v-10.13h41.39v10.13h-14.11v51.65h-13.24Z" style="fill:#ffffff;"></path><path d="M1017.05,1250.67l-3.3-13.77h-17.88l-3.25,13.77h-12.95l17.38-61.77h16.41l17.13,61.77h-13.54ZM992.96,1168.13h10.77l8.23,15.4h-5.93l-13.07-15.4ZM998.26,1227.4h13.15l-6.39-26.74-6.77,26.74Z" style="fill:#ffffff;"></path><path d="M1090.9,1250.67l-3.3-13.77h-17.87l-3.25,13.77h-12.95l17.38-61.77h16.41l17.13,61.77h-13.53ZM1072.11,1227.4h13.15l-6.39-26.74-6.76,26.74Z" style="fill:#ffffff;"></path><path d="M1151.92,1251.59c-2.81,0-5.46-.38-7.95-1.15-2.5-.77-4.46-1.79-5.91-3.08-2.48-2.14-4.28-5.33-5.41-9.54-1.12-4.21-1.69-10.46-1.69-18.75,0-6.36.34-11.36,1-15,.67-3.64,1.77-6.59,3.28-8.83,1.53-2.24,3.71-3.99,6.56-5.23,2.86-1.24,6.21-1.87,10.05-1.87,2.95,0,5.65.38,8.1,1.15,2.45.77,4.45,1.84,6.02,3.2,2.42,2.13,4.16,5.1,5.2,8.94,1.05,3.84,1.58,9.47,1.58,16.89s-.34,13.4-1.01,17.01c-.67,3.61-1.79,6.62-3.38,9.02-1.48,2.24-3.64,4-6.52,5.3-2.86,1.3-6.17,1.95-9.9,1.95ZM1143.91,1219.61c0,9.12.57,15.13,1.7,18.02,1.15,2.89,3.19,4.33,6.14,4.33s5.13-1.4,6.31-4.21c1.17-2.8,1.75-9.06,1.75-18.77,0-8.65-.57-14.36-1.72-17.12-1.14-2.76-3.19-4.14-6.18-4.14s-5.06,1.43-6.24,4.29c-1.19,2.86-1.77,8.73-1.77,17.6Z" style="fill:#ffffff;"></path><path d="M1200.99,1188.89c7.52,0,12.64,1.14,15.35,3.43,2.71,2.29,4.07,6.43,4.07,12.43,0,4.74-.67,8.28-2.03,10.61-1.35,2.33-3.66,3.92-6.95,4.75,3.68.75,6.17,2.06,7.48,3.92,1.31,1.86,1.97,5.44,1.97,10.75v3.1c0,2.79.11,5.2.37,7.21.24,2.01.64,3.87,1.21,5.57h-13.48c-.3-1.09-.54-2.63-.71-4.62-.18-1.98-.25-4.53-.25-7.63v-4.86c0-1.56-.14-2.86-.43-3.9-.28-1.03-.71-1.9-1.29-2.6-1.06-1.25-2.83-1.89-5.31-1.89h-5.39v25.49h-12.9v-61.77h18.29ZM1195.6,1215.55h3.18c3.44,0,5.85-.66,7.2-1.97,1.35-1.31,2.03-3.59,2.03-6.86s-.62-5.31-1.84-6.46c-1.22-1.16-3.61-1.74-7.14-1.74h-3.43v17.03Z" style="fill:#ffffff;"></path><path d="M1230.85,1250.67v-61.77h12.57v61.77h-12.57Z" style="fill:#ffffff;"></path><path d="M1252.82,1231.58h13.12v1.63c0,3.21.53,5.49,1.6,6.82,1.07,1.34,2.86,2.01,5.37,2.01,1.94,0,3.51-.61,4.68-1.82,1.16-1.22,1.75-2.87,1.75-4.96,0-2.9-2.74-6.15-8.19-9.75l-.79-.5c-1.82-1.17-2.8-1.81-2.96-1.92-1.54-1-2.84-1.9-3.93-2.68-.88-.61-1.61-1.14-2.17-1.59-.67-.53-1.21-.99-1.63-1.38-2.26-2.06-3.8-4.01-4.63-5.84-.84-1.83-1.26-4.08-1.26-6.76,0-5.13,1.77-9.24,5.28-12.32,3.52-3.08,8.26-4.63,14.23-4.63s10.71,1.43,13.84,4.29c3.14,2.86,4.7,7.08,4.7,12.66v1.63h-12.74v-.33c0-2.93-.53-5.11-1.59-6.53-1-1.48-2.56-2.22-4.68-2.22-1.89,0-3.41.58-4.53,1.73-1.12,1.16-1.69,2.7-1.69,4.63,0,3.29,3.56,7.07,10.69,11.34l4.25,2.64c4.01,2.54,6.81,5,8.4,7.37,1.59,2.37,2.38,5.19,2.38,8.45,0,5.97-1.77,10.49-5.27,13.54-3.52,3.06-8.69,4.58-15.53,4.58-6.42,0-11.15-1.44-14.18-4.33-3.03-2.89-4.54-7.42-4.54-13.58v-2.18Z" style="fill:#ffffff;"></path><path d="M1311.42,1250.67v-51.65h-14.04v-10.13h41.39v10.13h-14.13v51.65h-13.23Z" style="fill:#ffffff;"></path><path d="M1377.57,1250.67l-3.3-13.77h-17.87l-3.25,13.77h-12.95l17.38-61.77h16.41l17.13,61.77h-13.53ZM1358.78,1227.4h13.15l-6.39-26.74-6.76,26.74Z" style="fill:#ffffff;"></path><path d="M1397.53,1250.67v-61.77h17.29l11.78,32.08c1.34,3.58,2.55,7.19,3.64,10.83,1.11,3.64,2.03,7.18,2.79,10.61-.18-1.34-.33-2.75-.49-4.23-.15-1.48-.23-2.86-.23-4.14,0-.92-.04-2.45-.13-4.57-.08-2.13-.13-3.78-.13-4.99l-.74-35.6h11.91v61.77h-16.87l-12.49-33.8c-.48-1.31-.95-2.69-1.4-4.13-.47-1.44-.96-3.05-1.51-4.86-.54-1.8-1.08-3.68-1.63-5.63-.54-1.95-1.1-4.04-1.69-6.24l.71,10.3c0,1,.05,2.43.15,4.27.1,1.85.15,2.93.15,3.27l.71,36.82h-11.82Z" style="fill:#ffffff;"></path><path d="M1474.07,1251.59c-2.81,0-5.46-.38-7.95-1.15-2.5-.77-4.46-1.79-5.91-3.08-2.48-2.14-4.28-5.33-5.41-9.54-1.12-4.21-1.69-10.46-1.69-18.75,0-6.36.34-11.36,1-15,.67-3.64,1.77-6.59,3.28-8.83,1.53-2.24,3.71-3.99,6.56-5.23,2.86-1.24,6.21-1.87,10.05-1.87,2.95,0,5.65.38,8.1,1.15,2.45.77,4.45,1.84,6.02,3.2,2.42,2.13,4.16,5.1,5.2,8.94,1.05,3.84,1.58,9.47,1.58,16.89s-.34,13.4-1.01,17.01c-.67,3.61-1.79,6.62-3.38,9.02-1.48,2.24-3.64,4-6.52,5.3-2.86,1.3-6.17,1.95-9.9,1.95ZM1466.07,1219.61c0,9.12.57,15.13,1.7,18.02,1.15,2.89,3.19,4.33,6.14,4.33s5.13-1.4,6.31-4.21c1.17-2.8,1.75-9.06,1.75-18.77,0-8.65-.57-14.36-1.72-17.12-1.14-2.76-3.19-4.14-6.18-4.14s-5.06,1.43-6.24,4.29c-1.19,2.86-1.77,8.73-1.77,17.6Z" style="fill:#ffffff;"></path></g><g id="Livello_informazioni_campione"></g></svg>