<?xml version="1.0" encoding="UTF-8"?>
<svg xmlns="http://www.w3.org/2000/svg" viewBox="0 0 1180.67 800" role="img" aria-label="Welcome to UNO">
  <text transform="translate(106.8 273.21)" fill="#ffffff" font-family="Montserrat, sans-serif" font-size="131.86" font-weight="700">
    <tspan x="0" y="0" letter-spacing="-.02em">W</tspan>
    <tspan x="151.38" y="0">E</tspan>
    <tspan x="239.86" y="0" letter-spacing="-.01em">L</tspan>
    <tspan x="317.92" y="0" letter-spacing="-.02em">C</tspan>
    <tspan x="412.59" y="0">OME </tspan>
    <tspan x="775.6" y="0">T</tspan>
    <tspan x="855.78" y="0">O </tspan>
  </text>
  <path fill="#287c71" d="M153.14,572.78c-24.62-23.8-36.94-57.18-36.94-100.14v-158h96.85v155.12c0,21.07,3.76,36.39,11.28,45.96,7.53,9.58,18.4,14.36,32.63,14.36s25.1-4.78,32.62-14.36,7.53-9.57,11.29-24.89,11.29-45.96v-155.12h95.21v158c0,42.96-12.31,76.33-36.94,100.14-24.62,23.8-58.96,35.7-103.01,35.7s-78.38-11.9-103-35.7Z"/>
  <path fill="#287c71" d="M837.64,589.2c-24.62-12.86-43.91-30.71-57.87-53.55-13.95-22.84-20.93-48.63-20.93-77.36s6.97-54.51,20.93-77.36c13.95-22.84,33.24-40.69,57.87-53.55,24.62-12.86,52.39-19.29,83.31-19.29s58.68,6.43,83.3,19.29c24.62,12.86,43.91,30.71,57.87,53.55,13.95,22.85,20.93,48.63,20.93,77.36s-6.97,54.52-20.93,77.36c-13.95,22.85-33.24,40.7-57.87,53.55-24.62,12.86-52.39,19.29-83.3,19.29s-58.68-6.43-83.31-19.29ZM953.57,521.28c9.71-5.88,17.44-14.22,23.19-25.03,5.74-10.8,8.62-23.46,8.62-37.96s-2.87-27.15-8.62-37.96c-5.75-10.81-13.48-19.15-23.19-25.03-9.71-5.88-20.59-8.82-32.62-8.82s-22.92,2.94-32.63,8.82c-9.71,5.89-17.44,14.23-23.18,25.03-5.75,10.81-8.62,23.46-8.62,37.96s2.87,27.16,8.62,37.96c5.74,10.81,13.47,19.15,23.18,25.03,9.71,5.89,20.58,8.82,32.63,8.82s22.91-2.94,32.62-8.82Z"/>
  <path fill="#287c71" d="M680.68,343.79c24.62,23.8,36.94,57.18,36.94,100.14v158h-96.85v-155.12c0-21.07-3.76-36.39-11.28-45.96-7.53-9.58-18.4-14.36-32.63-14.36s-25.1,4.78-32.62,14.36c-7.53,9.57-11.29,24.89-11.29,45.96v155.12h-95.21v-158c0-42.96,12.31-76.33,36.94-100.14,24.62-23.8,58.96-35.7,103.01-35.7s78.38,11.9,103,35.7Z"/>
</svg>
