<?xml version="1.0"?><svg xmlns="http://www.w3.org/2000/svg" viewBox="173.0 1236.0 199.0 199.0"><path d="M210.77,1261.48h141.39c.96,0,1.74.78,1.74,1.74v144.86c0,.96-.78,1.74-1.74,1.74h-144.86c-.96,0-1.74-.78-1.74-1.74v-141.39c0-2.87,2.33-5.2,5.2-5.2" style="fill:#23a1d4; stroke:#fff; stroke-miterlimit:10; stroke-width:8.2px;"></path><path d="M275.93,1356.33v-29.72h14.73c2.04,0,3.83.35,5.37,1.06,1.54.71,2.75,1.69,3.63,2.95s1.32,2.71,1.32,4.35c0,1.22-.31,2.36-.91,3.42-.61,1.06-1.44,1.96-2.48,2.7,1.33.71,2.38,1.63,3.16,2.76s1.17,2.38,1.17,3.74c0,1.73-.44,3.25-1.32,4.56-.88,1.32-2.11,2.34-3.69,3.08-1.59.74-3.43,1.1-5.52,1.1h-15.45ZM283.23,1338.46h6.96c1.08,0,1.92-.27,2.55-.81.62-.54.93-1.24.93-2.12s-.31-1.62-.93-2.14c-.62-.52-1.47-.79-2.55-.79h-6.96v5.86ZM283.23,1350.35h7.6c1.13,0,2.03-.28,2.7-.85s1-1.33,1-2.29-.33-1.73-1-2.29c-.66-.57-1.56-.85-2.7-.85h-7.6v6.28Z" style="fill:#fff;"></path><path d="M305.86,1356.33v-29.72h9.21l7.35,14.01,7.34-14.01h9.21v29.72h-6.88v-20.25l-9.76,18.13-9.76-18.21v20.34h-6.71Z" style="fill:#fff;"></path><path d="M283.62,1392.53v-29.72h23.43v6.33h-16.13v5.35h10.66v6.11h-10.66v5.6h16.3v6.33h-23.6Z" style="fill:#fff;"></path><path d="M309.17,1392.53l12.18-29.72h8.36l12.01,29.72h-7.9l-2.72-7.18h-11.59l-2.76,7.18h-7.6ZM321.74,1379.53h7.22l-3.57-9.51-3.65,9.51Z" style="fill:#fff;"></path><path d="M204.84,1288.67l-16.82,29.14c-7.79,13.49,1.95,30.36,17.53,30.36h0c15.58,0,25.32-16.87,17.53-30.36l-16.82-29.14c-.31-.54-1.1-.54-1.41,0Z" style="fill:#23a1d4; stroke:#fff; stroke-miterlimit:10; stroke-width:8.2px;"></path></svg>