<?xml version="1.0"?><svg xmlns="http://www.w3.org/2000/svg" viewBox="173.0 525.5 199.0 199.0"><path d="M210.68,549.4h141.52c.96,0,1.74.78,1.74,1.74v144.99c0,.96-.78,1.74-1.74,1.74h-144.99c-.96,0-1.74-.78-1.74-1.74v-141.52c0-2.88,2.33-5.21,5.21-5.21" style="fill:#db3418; stroke:#fff; stroke-miterlimit:10; stroke-width:7.7px;"></path><path d="M239.31,682.64v-35.11h14.24c2.61,0,5.03.45,7.27,1.35,2.24.9,4.2,2.16,5.89,3.76s3.01,3.48,3.96,5.62c.95,2.14,1.43,4.45,1.43,6.92s-.48,4.71-1.43,6.82c-.95,2.11-2.27,3.95-3.96,5.54-1.69,1.59-3.65,2.83-5.89,3.74s-4.66,1.35-7.27,1.35h-14.24ZM247.94,675.01h5.42c1.37,0,2.65-.25,3.84-.75,1.19-.5,2.23-1.2,3.13-2.11.9-.9,1.6-1.95,2.11-3.13.5-1.19.75-2.47.75-3.84s-.25-2.72-.75-3.94c-.5-1.22-1.2-2.28-2.11-3.19-.9-.9-1.95-1.61-3.13-2.13-1.19-.52-2.47-.78-3.84-.78h-5.42v19.86Z" style="fill:#fff;"></path><path d="M289.62,683.14c-2.84,0-5.65-.52-8.43-1.55-2.78-1.04-5.25-2.47-7.42-4.31l4.81-6.27c2.14,1.74,4.11,2.98,5.92,3.74,1.81.75,3.73,1.13,5.77,1.13,1.34,0,2.47-.13,3.41-.4.94-.27,1.66-.66,2.16-1.18.5-.52.75-1.13.75-1.83,0-.97-.37-1.72-1.1-2.26-.74-.53-1.99-.95-3.76-1.25l-7.72-1.35c-2.84-.5-5.03-1.59-6.57-3.26-1.54-1.67-2.31-3.79-2.31-6.37,0-2.27.58-4.23,1.73-5.87,1.15-1.64,2.81-2.89,4.97-3.76,2.16-.87,4.72-1.3,7.7-1.3,2.61,0,5.23.44,7.87,1.33,2.64.89,4.93,2.12,6.87,3.69l-4.56,6.37c-3.61-2.77-7.21-4.16-10.78-4.16-1.17,0-2.18.12-3.04.38s-1.5.6-1.96,1.05c-.45.45-.68,1-.68,1.63,0,.87.33,1.54.98,2.01.65.47,1.71.84,3.19,1.1l7.27,1.2c3.38.54,5.94,1.66,7.7,3.36,1.76,1.71,2.63,3.91,2.63,6.62,0,2.37-.62,4.42-1.86,6.14-1.24,1.72-3.01,3.05-5.32,3.99-2.31.94-5.05,1.4-8.23,1.4Z" style="fill:#fff;"></path><path d="M317.71,682.64v-27.49h-11.49v-7.62h31.6v7.62h-11.49v27.49h-8.63Z" style="fill:#fff;"></path><path d="M206.76,635.61l16.84-29.17c7.8-13.51-1.95-30.39-17.55-30.39h0c-15.6,0-25.34,16.88-17.55,30.39l16.84,29.17c.31.54,1.1.54,1.41,0Z" style="fill:#db3418; stroke:#fff; stroke-miterlimit:10; stroke-width:7.7px;"></path><path d="M258.95,585.33v-19.5h6.05l4.82,9.2,4.82-9.2h6.05v19.5h-4.51v-13.29l-6.41,11.9-6.41-11.95v13.35h-4.4Z" style="fill:#fff;"></path><path d="M283.91,585.33v-19.5h7.91c1.45,0,2.8.25,4.04.75,1.24.5,2.34,1.2,3.27,2.09.94.89,1.67,1.93,2.2,3.12.53,1.19.79,2.47.79,3.85s-.27,2.62-.79,3.79c-.53,1.17-1.26,2.2-2.2,3.08-.94.88-2.03,1.57-3.27,2.08s-2.59.75-4.04.75h-7.91ZM288.7,581.1h3.01c.76,0,1.47-.14,2.13-.42.66-.28,1.24-.67,1.74-1.17.5-.5.89-1.08,1.17-1.74.28-.66.42-1.37.42-2.13s-.14-1.51-.42-2.19-.67-1.27-1.17-1.77c-.5-.5-1.08-.9-1.74-1.18-.66-.29-1.37-.43-2.13-.43h-3.01v11.03Z" style="fill:#fff;"></path><path d="M308.82,585.33v-15.27h-6.38v-4.24h17.55v4.24h-6.38v15.27h-4.79Z" style="fill:#fff;"></path><path d="M330.78,585.61c-1.49,0-2.87-.26-4.14-.77-1.27-.51-2.38-1.22-3.33-2.13-.95-.91-1.69-1.97-2.21-3.19-.53-1.22-.79-2.53-.79-3.94s.26-2.75.79-3.97c.53-1.22,1.27-2.28,2.23-3.19s2.07-1.62,3.34-2.13c1.27-.51,2.64-.77,4.11-.77,1.08,0,2.13.16,3.18.47,1.04.32,2,.76,2.89,1.32.88.57,1.62,1.24,2.21,2.02l-3.23,3.18c-.69-.87-1.45-1.52-2.3-1.95-.84-.43-1.76-.64-2.74-.64-.78,0-1.51.14-2.19.43-.68.29-1.27.68-1.77,1.18-.5.5-.89,1.1-1.17,1.78s-.42,1.44-.42,2.26.14,1.54.43,2.22c.29.68.69,1.27,1.2,1.78.51.51,1.12.91,1.81,1.18.7.28,1.45.42,2.27.42.95,0,1.82-.2,2.63-.61s1.54-1.01,2.19-1.81l3.15,3.09c-.59.76-1.33,1.43-2.2,1.99-.87.57-1.82,1-2.84,1.31-1.02.31-2.05.46-3.09.46Z" style="fill:#fff;"></path></svg>