<?xml version="1.0"?><svg xmlns="http://www.w3.org/2000/svg" viewBox="173.0 867.5 199.0 199.0"><path d="M210.85,893.05h140.72c.96,0,1.73.78,1.73,1.73v144.17c0,.96-.78,1.73-1.73,1.73h-144.17c-.96,0-1.73-.78-1.73-1.73v-140.72c0-2.86,2.32-5.18,5.18-5.18" style="fill:#eaa000; stroke:#fff; stroke-miterlimit:10; stroke-width:7.66px;"></path><path d="M242.37,1026.41v-34.91h27.53v7.43h-18.95v6.28h12.52v7.18h-12.52v6.58h19.15v7.43h-27.73Z" style="fill:#fff;"></path><path d="M284.56,1026.41v-27.33h-11.42v-7.58h31.42v7.58h-11.42v27.33h-8.58Z" style="fill:#fff;"></path><path d="M323.86,1026.91c-2.66,0-5.13-.46-7.41-1.37-2.28-.91-4.26-2.19-5.96-3.81-1.7-1.63-3.02-3.53-3.97-5.71-.95-2.18-1.42-4.53-1.42-7.06s.47-4.93,1.42-7.11c.95-2.18,2.28-4.08,3.99-5.71,1.71-1.63,3.71-2.9,5.98-3.81s4.73-1.37,7.36-1.37c1.93,0,3.82.28,5.69.85,1.86.57,3.58,1.36,5.16,2.37,1.58,1.01,2.9,2.22,3.97,3.62l-5.79,5.69c-1.23-1.56-2.6-2.73-4.11-3.49-1.51-.76-3.15-1.15-4.91-1.15-1.4,0-2.7.26-3.91.77-1.21.52-2.27,1.22-3.17,2.12s-1.6,1.96-2.09,3.19c-.5,1.23-.75,2.58-.75,4.04s.26,2.75.77,3.97c.52,1.21,1.23,2.28,2.14,3.19.91.92,2,1.62,3.24,2.12s2.6.75,4.06.75c1.7,0,3.27-.37,4.71-1.1,1.45-.73,2.75-1.81,3.91-3.24l5.64,5.54c-1.06,1.36-2.38,2.55-3.94,3.57-1.56,1.01-3.26,1.8-5.09,2.34-1.83.55-3.67.82-5.54.82Z" style="fill:#fff;"></path><path d="M259.11,930.55v-19.5h6.05l4.82,9.2,4.82-9.2h6.05v19.5h-4.51v-13.29l-6.41,11.9-6.41-11.95v13.35h-4.4Z" style="fill:#fff;"></path><path d="M284.08,930.55v-19.5h7.91c1.45,0,2.8.25,4.04.75,1.24.5,2.34,1.2,3.27,2.09.94.89,1.67,1.93,2.2,3.12.53,1.19.79,2.47.79,3.85s-.27,2.62-.79,3.79c-.53,1.17-1.26,2.2-2.2,3.08-.94.88-2.03,1.57-3.27,2.08s-2.59.75-4.04.75h-7.91ZM288.87,926.32h3.01c.76,0,1.47-.14,2.13-.42.66-.28,1.24-.67,1.74-1.17.5-.5.89-1.08,1.17-1.74.28-.66.42-1.37.42-2.13s-.14-1.51-.42-2.19-.67-1.27-1.17-1.77c-.5-.5-1.08-.9-1.74-1.18-.66-.29-1.37-.43-2.13-.43h-3.01v11.03Z" style="fill:#fff;"></path><path d="M308.99,930.55v-15.27h-6.38v-4.24h17.55v4.24h-6.38v15.27h-4.79Z" style="fill:#fff;"></path><path d="M330.95,930.83c-1.49,0-2.87-.26-4.14-.77-1.27-.51-2.38-1.22-3.33-2.13-.95-.91-1.69-1.97-2.21-3.19-.53-1.22-.79-2.53-.79-3.94s.26-2.75.79-3.97c.53-1.22,1.27-2.28,2.23-3.19s2.07-1.62,3.34-2.13c1.27-.51,2.64-.77,4.11-.77,1.08,0,2.13.16,3.18.47,1.04.32,2,.76,2.89,1.32.88.57,1.62,1.24,2.21,2.02l-3.23,3.18c-.69-.87-1.45-1.52-2.3-1.95-.84-.43-1.76-.64-2.74-.64-.78,0-1.51.14-2.19.43-.68.29-1.27.68-1.77,1.18-.5.5-.89,1.1-1.17,1.78s-.42,1.44-.42,2.26.14,1.54.43,2.22c.29.68.69,1.27,1.2,1.78.51.51,1.12.91,1.81,1.18.7.28,1.45.42,2.27.42.95,0,1.82-.2,2.63-.61s1.54-1.01,2.19-1.81l3.15,3.09c-.59.76-1.33,1.43-2.2,1.99-.87.57-1.82,1-2.84,1.31-1.02.31-2.05.46-3.09.46Z" style="fill:#fff;"></path></svg>