<?xml version="1.0"?><svg xmlns="http://www.w3.org/2000/svg" viewBox="1125.0 1241.0 199.0 199.0"><path d="M1164.63,1266.71h140.47c.95,0,1.73.77,1.73,1.73v143.91c0,.95-.77,1.73-1.73,1.73h-143.91c-.95,0-1.73-.77-1.73-1.73v-140.47c0-2.86,2.32-5.17,5.17-5.17" style="fill:#135fad; stroke:#fff; stroke-miterlimit:10; stroke-width:7.64px;"></path><path d="M1246.45,1309.28v-22.11h5.12l10.04,12.82v-12.82h5.12v22.11h-4.8l-10.36-13.33v13.33h-5.12Z" style="fill:#fff;"></path><path d="M1270.39,1309.28v-22.11h17.43v4.71h-12v3.98h7.93v4.55h-7.93v4.17h12.13v4.71h-17.56Z" style="fill:#fff;"></path><path d="M1244.15,1338.64c-1.79,0-3.56-.33-5.31-.98-1.75-.65-3.31-1.56-4.67-2.72l3.03-3.95c1.35,1.09,2.59,1.88,3.73,2.35,1.14.47,2.35.71,3.63.71.84,0,1.56-.08,2.15-.25.59-.17,1.04-.42,1.36-.74s.47-.71.47-1.15c0-.61-.23-1.08-.69-1.42-.46-.34-1.25-.6-2.37-.79l-4.86-.85c-1.79-.32-3.17-1-4.14-2.05-.97-1.05-1.45-2.39-1.45-4.01,0-1.43.36-2.66,1.09-3.7.73-1.03,1.77-1.82,3.13-2.37,1.36-.55,2.97-.82,4.85-.82,1.64,0,3.29.28,4.96.84,1.66.56,3.11,1.33,4.33,2.32l-2.87,4.01c-2.27-1.75-4.54-2.62-6.79-2.62-.74,0-1.37.08-1.91.24-.54.16-.95.38-1.23.66-.28.28-.43.63-.43,1.03,0,.55.2.97.62,1.26s1.08.53,2.01.69l4.58.76c2.13.34,3.74,1.04,4.85,2.12,1.11,1.07,1.66,2.46,1.66,4.17,0,1.5-.39,2.78-1.17,3.87-.78,1.09-1.89,1.92-3.35,2.51s-3.18.88-5.18.88Z" style="fill:#fff;"></path><path d="M1256.34,1338.32v-22.11h5.43v22.11h-5.43Z" style="fill:#fff;"></path><path d="M1276.46,1338.67c-1.66,0-3.21-.29-4.64-.87-1.43-.58-2.68-1.39-3.76-2.43-1.07-1.04-1.91-2.25-2.51-3.63s-.9-2.87-.9-4.47.3-3.09.9-4.47,1.44-2.59,2.51-3.63c1.07-1.04,2.33-1.85,3.76-2.43,1.43-.58,2.98-.87,4.64-.87s3.21.29,4.64.87c1.43.58,2.68,1.39,3.76,2.43,1.07,1.04,1.91,2.25,2.51,3.63s.9,2.87.9,4.47-.3,3.09-.9,4.47-1.44,2.59-2.51,3.63c-1.07,1.04-2.33,1.85-3.76,2.43-1.43.58-2.98.87-4.64.87ZM1276.46,1333.68c.89,0,1.71-.16,2.46-.49.76-.33,1.42-.77,1.97-1.34.56-.57.99-1.25,1.31-2.04.32-.79.47-1.64.47-2.54s-.16-1.78-.47-2.56c-.32-.78-.75-1.45-1.31-2.02-.56-.57-1.22-1.02-1.97-1.34-.76-.33-1.58-.49-2.46-.49s-1.71.16-2.46.49c-.76.33-1.42.77-1.97,1.34-.56.57-.99,1.24-1.31,2.02-.32.78-.47,1.63-.47,2.56s.16,1.75.47,2.54.75,1.47,1.31,2.04c.56.57,1.22,1.02,1.97,1.34.76.33,1.58.49,2.46.49Z" style="fill:#fff;"></path><path d="M1266.98,1367.36v-17.31h-7.23v-4.8h19.9v4.8h-7.23v17.31h-5.43Z" style="fill:#fff;"></path><path d="M1282.05,1367.36v-22.11h5.43v22.11h-5.43Z" style="fill:#fff;"></path><path d="M1243.71,1396.39v-22.11h5.43v9.67l8.94-9.67h6.57l-10.23,10.39,10.8,11.72h-7.2l-8.88-10.14v10.14h-5.43Z" style="fill:#fff;"></path><path d="M1265.31,1396.39l9.06-22.11h6.22l8.94,22.11h-5.87l-2.02-5.34h-8.62l-2.05,5.34h-5.65ZM1274.66,1386.73h5.37l-2.65-7.07-2.72,7.07Z" style="fill:#fff;"></path><path d="M1168.95,1303.96l3.33-8.26c.76-1.9-.63-3.97-2.68-3.97h-19.99c-2.05,0-3.44,2.07-2.68,3.97l3.33,8.26c.53,1.31.01,2.79-1.18,3.55-8.43,5.35-12.13,16.83-6.53,26.52l16.38,28.36c.3.53,1.07.53,1.37,0l16.38-28.36c5.6-9.7,1.89-21.18-6.53-26.52-1.2-.76-1.71-2.24-1.18-3.55Z" style="fill:#135fad; stroke:#fff; stroke-miterlimit:10; stroke-width:7.64px;"></path></svg>