<?xml version="1.0"?><svg xmlns="http://www.w3.org/2000/svg" viewBox="1125.0 870.0 203.0 203.0"><path d="M1172.37,899.36h137.95c.94,0,1.7.76,1.7,1.7v141.33c0,.94-.76,1.7-1.7,1.7h-141.33c-.94,0-1.7-.76-1.7-1.7v-137.95c0-2.8,2.27-5.08,5.08-5.08" style="fill:#86b500; stroke:#fff; stroke-miterlimit:10; stroke-width:7.5px;"></path><path d="M1207.71,1027.98c-2.64,0-5.1-.46-7.37-1.38-2.27-.92-4.26-2.21-5.97-3.86s-3.03-3.58-3.99-5.77c-.95-2.19-1.43-4.56-1.43-7.1s.48-4.91,1.43-7.1c.95-2.19,2.28-4.11,3.99-5.77s3.69-2.94,5.97-3.86c2.27-.92,4.73-1.38,7.37-1.38s5.1.46,7.37,1.38c2.27.92,4.26,2.21,5.97,3.86,1.7,1.66,3.03,3.58,3.99,5.77.95,2.19,1.43,4.56,1.43,7.1s-.48,4.91-1.43,7.1c-.95,2.19-2.28,4.11-3.99,5.77-1.71,1.66-3.7,2.94-5.97,3.86s-4.73,1.38-7.37,1.38ZM1207.71,1020.05c1.41,0,2.71-.26,3.91-.78,1.2-.52,2.25-1.23,3.13-2.13.89-.9,1.58-1.98,2.08-3.24.5-1.25.75-2.6.75-4.04s-.25-2.83-.75-4.06c-.5-1.24-1.2-2.31-2.08-3.21-.89-.9-1.93-1.61-3.13-2.13-1.2-.52-2.51-.78-3.91-.78s-2.71.26-3.91.78c-1.2.52-2.25,1.23-3.13,2.13-.89.9-1.58,1.97-2.08,3.21s-.75,2.59-.75,4.06.25,2.78.75,4.04,1.19,2.33,2.08,3.24c.89.9,1.93,1.61,3.13,2.13,1.2.52,2.51.78,3.91.78Z" style="fill:#fff;"></path><path d="M1248.64,1027.93c-2.68,0-5.16-.46-7.45-1.38-2.29-.92-4.29-2.2-5.99-3.84-1.71-1.64-3.03-3.55-3.99-5.74-.95-2.19-1.43-4.56-1.43-7.1s.48-4.96,1.43-7.15c.95-2.19,2.29-4.1,4.01-5.74,1.72-1.64,3.73-2.92,6.02-3.84,2.29-.92,4.76-1.38,7.4-1.38,1.94,0,3.84.28,5.72.85,1.87.57,3.6,1.36,5.19,2.38,1.59,1.02,2.92,2.23,3.99,3.64l-5.82,5.72c-1.24-1.57-2.62-2.74-4.14-3.51-1.52-.77-3.17-1.15-4.94-1.15-1.4,0-2.72.26-3.94.78-1.22.52-2.28,1.23-3.19,2.13-.9.9-1.6,1.97-2.11,3.21s-.75,2.59-.75,4.06.26,2.77.78,3.99c.52,1.22,1.24,2.29,2.16,3.21.92.92,2.01,1.63,3.26,2.13,1.25.5,2.62.75,4.09.75,1.71,0,3.29-.37,4.74-1.1,1.45-.73,2.77-1.82,3.94-3.26l5.67,5.57c-1.07,1.37-2.39,2.57-3.96,3.59-1.57,1.02-3.28,1.81-5.12,2.36s-3.69.83-5.57.83Z" style="fill:#fff;"></path><path d="M1266.94,1027.43v-35.11h27.89v7.47h-19.26v6.57h12.84v7.22h-12.84v13.84h-8.63Z" style="fill:#fff;"></path><path d="M1162.39,932.86h13.64v13.64c0,12.43-10.09,22.52-22.52,22.52h-13.64v-13.64c0-12.43,10.09-22.52,22.52-22.52Z" transform="translate(2108.9 -207.02) rotate(90)" style="fill:#86b500; stroke:#fff; stroke-miterlimit:10; stroke-width:7.5px;"></path><path d="M1167.6,932.86h13.64c12.43,0,22.52,10.09,22.52,22.52v13.64h-13.64c-12.43,0-22.52-10.09-22.52-22.52v-13.64h0Z" transform="translate(2136.62 -234.74) rotate(90)" style="fill:#86b500; stroke:#fff; stroke-miterlimit:10; stroke-width:7.5px;"></path></svg>