<?xml version="1.0"?><svg id="Livello_informazioni_campione" xmlns="http://www.w3.org/2000/svg" xmlns:xlink="http://www.w3.org/1999/xlink" viewBox="-110 677 2030 644"><defs><clipPath id="clippath"><rect x="294.72" y="707.02" width="1410.57" height="585.95" style="fill:none;"></rect></clipPath></defs><g style="clip-path:url(#clippath);"><g id="_Ripetizione_griglia_"><path d="M391.36,887.92h-96.96s0,261.73,0,261.73c0,21.46-3.83,37.06-11.5,46.81-7.66,9.76-18.74,14.63-33.22,14.63s-25.56-4.87-33.23-14.63c-7.66-9.75-11.49-25.35-11.49-46.81v-143.4s.14,0,.14,0v-160.9c0-43.75-12.54-77.73-37.62-101.98-25.07-24.24-60.03-36.36-104.89-36.36s-79.82,12.12-104.9,36.36c-25.08,24.24-37.62,58.23-37.62,101.98v264.66H17.04v-261.73c0-21.46,3.83-37.06,11.5-46.81,7.66-9.76,18.74-14.63,33.22-14.63s25.56,4.87,33.23,14.63c7.66,9.75,11.49,25.35,11.49,46.81v143.4h-.15v160.9c0,43.75,12.54,77.73,37.62,101.98,25.07,24.24,60.03,36.36,104.89,36.36s79.82-12.12,104.9-36.36c25.08-24.24,37.62-58.23,37.62-101.98v-264.66Z" style="fill:#f4eee7;"></path></g><g id="_Ripetizione_griglia_-2"><path d="M766,887.92h-96.96s0,261.73,0,261.73c0,21.46-3.83,37.06-11.5,46.81-7.66,9.76-18.74,14.63-33.22,14.63s-25.56-4.87-33.23-14.63c-7.66-9.75-11.49-25.35-11.49-46.81v-143.4s.14,0,.14,0v-160.9c0-43.75-12.54-77.73-37.62-101.98-25.07-24.24-60.03-36.36-104.89-36.36s-79.82,12.12-104.9,36.36c-25.08,24.24-37.62,58.23-37.62,101.98v264.66h96.96v-261.73c0-21.46,3.83-37.06,11.5-46.81,7.66-9.76,18.74-14.63,33.22-14.63s25.56,4.87,33.23,14.63c7.66,9.75,11.49,25.35,11.49,46.81v143.4h-.15v160.9c0,43.75,12.54,77.73,37.62,101.98,25.07,24.24,60.03,36.36,104.89,36.36s79.82-12.12,104.9-36.36c25.08-24.24,37.62-58.23,37.62-101.98v-264.66Z" style="fill:#f4eee7;"></path></g><g id="_Ripetizione_griglia_-3"><path d="M1140.63,887.92h-96.96s0,261.73,0,261.73c0,21.46-3.83,37.06-11.5,46.81-7.66,9.76-18.74,14.63-33.22,14.63s-25.56-4.87-33.23-14.63c-7.66-9.75-11.49-25.35-11.49-46.81v-143.4s.14,0,.14,0v-160.9c0-43.75-12.54-77.73-37.62-101.98-25.07-24.24-60.03-36.36-104.89-36.36s-79.82,12.12-104.9,36.36c-25.08,24.24-37.62,58.23-37.62,101.98v264.66h96.96v-261.73c0-21.46,3.83-37.06,11.5-46.81,7.66-9.76,18.74-14.63,33.22-14.63s25.56,4.87,33.23,14.63c7.66,9.75,11.49,25.35,11.49,46.81v143.4h-.15v160.9c0,43.75,12.54,77.73,37.62,101.98,25.07,24.24,60.03,36.36,104.89,36.36s79.82-12.12,104.9-36.36c25.08-24.24,37.62-58.23,37.62-101.98v-264.66Z" style="fill:#f4eee7;"></path></g><g id="_Ripetizione_griglia_-4"><path d="M1515.26,887.92h-96.96s0,261.73,0,261.73c0,21.46-3.83,37.06-11.5,46.81-7.66,9.76-18.74,14.63-33.22,14.63s-25.56-4.87-33.23-14.63c-7.66-9.75-11.49-25.35-11.49-46.81v-143.4s.14,0,.14,0v-160.9c0-43.75-12.54-77.73-37.62-101.98-25.07-24.24-60.03-36.36-104.89-36.36s-79.82,12.12-104.9,36.36c-25.08,24.24-37.62,58.23-37.62,101.98v264.66h96.96v-261.73c0-21.46,3.83-37.06,11.5-46.81,7.66-9.76,18.74-14.63,33.22-14.63s25.56,4.87,33.23,14.63c7.66,9.75,11.49,25.35,11.49,46.81v143.4h-.15v160.9c0,43.75,12.54,77.73,37.62,101.98,25.07,24.24,60.03,36.36,104.89,36.36s79.82-12.12,104.9-36.36c25.08-24.24,37.62-58.23,37.62-101.98v-264.66Z" style="fill:#f4eee7;"></path></g><g id="_Ripetizione_griglia_-5"><path d="M1889.9,887.92h-96.96s0,261.73,0,261.73c0,21.46-3.83,37.06-11.5,46.81-7.66,9.76-18.74,14.63-33.22,14.63s-25.56-4.87-33.23-14.63c-7.66-9.75-11.49-25.35-11.49-46.81v-143.4s.14,0,.14,0v-160.9c0-43.75-12.54-77.73-37.62-101.98-25.07-24.24-60.03-36.36-104.89-36.36s-79.82,12.12-104.9,36.36c-25.08,24.24-37.62,58.23-37.62,101.98v264.66h96.96v-261.73c0-21.46,3.83-37.06,11.5-46.81,7.66-9.76,18.74-14.63,33.22-14.63s25.56,4.87,33.23,14.63c7.66,9.75,11.49,25.35,11.49,46.81v143.4h-.15v160.9c0,43.75,12.54,77.73,37.62,101.98,25.07,24.24,60.03,36.36,104.89,36.36s79.82-12.12,104.9-36.36c25.08-24.24,37.62-58.23,37.62-101.98v-264.66Z" style="fill:#f4eee7;"></path></g></g></svg>